<svg xmlns="http://www.w3.org/2000/svg" width="94" height="104" fill="none"><g clip-path="url(#a)"><path fill="#2F89F0" d="M52.513 0c1.37.669 1.852 1.752 1.846 3.277-.046 10.02-.016 20.041-.038 30.062-.002.693.166 1.094.843 1.378 1.37.58 2.694 1.257 4.034 1.901 1.534.737 2.255 1.972 2.241 3.662-.008 1.083-.002 2.164-.002 3.42h1.198c5.76 0 11.52-.016 17.28.006 3.073.01 5.15 2.345 4.716 5.286-.266 1.807-1.364 2.969-3.055 3.589-.314.114-.642.187-.99.287V88.92c2.527.675 4.641-.883 4.665-3.428.02-1.996-.01-3.995.008-5.99.033-3.47 2.681-6.252 6.15-6.476 1.033-.068 1.817.511 1.9 1.41.08.827-.571 1.528-1.555 1.682-2.475.388-3.44 1.512-3.445 4.028-.003 1.828.019 3.656-.008 5.484-.057 3.743-2.838 6.505-6.576 6.562-.339.005-.675 0-1.095 0v2.716c.241.06.531.125.816.206 2.209.645 3.526 2.757 3.19 5.116-.3 2.115-2.176 3.74-4.383 3.765-1.659.019-3.32.013-4.98 0-1.078-.009-1.78-.634-1.766-1.536.013-.899.712-1.49 1.805-1.498 1.49-.01 2.981.006 4.472-.005 1.16-.011 1.81-.539 1.824-1.452.014-.961-.56-1.454-1.778-1.454-10.942-.005-21.887-.005-32.83 0-1.136 0-1.824.593-1.789 1.476.035.877.732 1.43 1.873 1.43 7.08.005 14.163.003 21.243.003.303 0 .615-.03.913.021.816.144 1.263.699 1.274 1.479.01.783-.436 1.341-1.239 1.511-.26.054-.539.025-.81.025-7.148 0-14.298.002-21.446 0-2.575 0-4.535-1.563-4.841-3.854-.32-2.378 1.035-4.315 3.508-5.108.257-.081.593-.474.596-.726.027-6.465.013-12.932.003-19.396 0-.065-.041-.128-.117-.344h-1.225c-13.314 0-26.631-.05-39.946.038-3.065.019-4.32-2.043-4.31-4.307.057-12.422.028-24.848.028-37.27 0-1.669.452-2.357 1.547-2.368 1.117-.01 1.578.666 1.58 2.335.003 2.302-.002 4.604.003 6.906 0 .363.03.726.052 1.2h25.455c1.65 0 2.388.468 2.412 1.527.027 1.105-.73 1.603-2.434 1.603H3.941v6.154H29.46c.304 0 .613-.022.913.013.846.098 1.453.775 1.386 1.584-.07.854-.548 1.363-1.42 1.438-.372.033-.746.02-1.117.02H3.938v6.188h1.238c7.996 0 15.993 0 23.989.002.406 0 .816-.005 1.217.044.859.108 1.355.617 1.374 1.481.019.875-.507 1.37-1.328 1.544-.326.068-.675.032-1.014.032H3.845v2.143c0 1.793.044 3.59-.019 5.381-.032.962.255 1.278 1.255 1.276 10.91-.033 21.82-.022 32.73-.022h8.403c.032-.35.084-.636.084-.926.005-5.62-.008-11.24.019-16.86.003-.655-.19-.934-.824-1.115-2.307-.663-3.632-2.711-3.32-5.018.292-2.156 2.214-3.852 4.537-3.881 3.456-.044 6.912-.014 10.368-.014h1.26c0-1.248.093-2.435-.051-3.594-.046-.382-.648-.799-1.087-1.01-6.885-3.311-13.783-6.591-20.68-9.881-10.403-4.956-20.806-9.92-31.212-14.882-1.336-.637-1.46-.55-1.46.961-.004 3.182 0 6.365-.004 9.547 0 .303.011.612-.032.912-.125.88-.762 1.487-1.548 1.444-.919-.049-1.407-.61-1.523-1.479-.063-.466-.022-.945-.025-1.419 0-3.147-.01-6.297.003-9.444.014-3.176 2.64-4.85 5.503-3.493 6.502 3.085 12.997 6.19 19.494 9.286.33.157.67.301 1.12.504.021-.43.05-.78.05-1.13.003-5.584.041-11.17-.02-16.755-.023-1.539.468-2.614 1.861-3.261h8.335c1.366.669 1.857 1.747 1.846 3.274-.051 7.575-.027 15.153-.01 22.728 0 .358.086.902.32 1.035.948.55 1.97.972 3.119 1.516v-1.251c0-8.017.027-16.033-.025-24.047-.01-1.535.472-2.61 1.865-3.255h8.335Zm10.88 49.756c5.319 0 10.637.003 15.952-.005.404 0 .821 0 1.204-.108.74-.21 1.122-.74 1.046-1.525-.07-.734-.504-1.162-1.233-1.262a7.423 7.423 0 0 0-1.014-.052c-10.636-.003-21.27-.003-31.906-.003-.236 0-.474-.008-.71.017-.922.086-1.532.669-1.529 1.451.003.783.613 1.382 1.523 1.474.301.03.61.013.914.013h15.754Zm14.014 3.11h-27.9v2.632h27.9v-2.633ZM45.39 18.488c0 3.034.146 5.983-.051 8.908-.136 2.01.403 3.187 2.39 3.783 1.196.358 2.29 1.056 3.497 1.633V18.49H45.39Zm4.082 76.343h27.922v-2.556H49.472v2.556Zm-.005-28.165h27.927v-2.373H49.467v2.373Zm.019 11.168h27.897v-2.383H49.486v2.383Zm-.017 11.178h27.92v-2.357h-27.92v2.356Zm27.903-27.907v-2.372H49.488v2.372h27.884Zm.035 8.802H49.494v2.335h27.913v-2.335Zm0 11.172H49.494v2.335h27.913V81.08ZM29.943 18.462c0 1.325-.009 2.565.01 3.803.003.168.106.422.239.484 1.832.9 3.675 1.772 5.56 2.67v-6.96c-1.939.003-3.79.003-5.81.003ZM30.01 3.09v4.845h5.75V3.09h-5.75Zm15.442-.008v4.823h5.766V3.082h-5.766Zm-9.676 8.117h-5.782v4.021h5.782V11.2Zm9.668-.025v4.044h5.78v-4.044h-5.78Z"/></g><defs><clipPath id="a"><path fill="#fff" d="M.688 0h92.624v104H.689z"/></clipPath></defs></svg>