<svg xmlns="http://www.w3.org/2000/svg" width="105" height="104" fill="none"><g fill="#2F89F0" clip-path="url(#a)"><path d="M12.753 104.004c-.712-.493-1-1.146-1.053-2.04-.312-5.251-4.165-8.986-9.547-9.333-1.44-.092-2.288-1.325-1.549-2.394.293-.426.956-.786 1.481-.83 5.662-.457 9.238-4.019 9.652-9.704.079-1.067.68-1.695 1.622-1.695.942-.003 1.551.63 1.627 1.693.412 5.68 3.996 9.27 9.652 9.677 1.075.076 1.703.666 1.711 1.606.011.978-.633 1.574-1.779 1.647-4.68.303-8.16 3.082-9.264 7.435-.157.617-.298 1.264-.284 1.896.016.907-.347 1.543-1.051 2.042h-1.218Zm.603-8.432 4.576-4.569-4.57-4.572c-1.487 1.484-3.108 3.107-4.573 4.567 1.5 1.503 3.103 3.106 4.567 4.574Zm90.977-85.217c-.496.707-1.148.989-2.039 1.056-3.438.263-5.818 2.787-6.084 6.325-.108 1.435-1.356 2.258-2.42 1.511-.404-.284-.75-.902-.799-1.398-.395-3.892-2.62-6.148-6.506-6.481-1.047-.09-1.668-.723-1.64-1.677.024-.901.633-1.484 1.64-1.57 3.88-.334 6.133-2.59 6.476-6.487C93.051.629 93.638.02 94.54 0c.95-.022 1.578.598 1.668 1.649.327 3.87 2.596 6.094 6.487 6.508.574.063 1.093.637 1.638.976v1.221Zm-7.546-.599c-.731-.725-1.578-1.568-2.19-2.177l-2.18 2.196 2.142 2.162c.688-.675 1.543-1.514 2.228-2.18ZM13.371 22.202c0-.276.003-.444 0-.615-.016-1.606.677-2.204 2.245-2.058 2.588.24 5.18.525 7.776.612 6.15.203 12.215-.374 18.072-2.432 3.549-1.249 6.768-3.04 9.505-5.658.972-.93 1.738-.967 2.659-.087 4.394 4.198 9.79 6.265 15.633 7.332 6.576 1.203 13.18 1.156 19.788.246 1.562-.216 2.337.442 2.269 2.013a129.722 129.722 0 0 1-2.044 17.916c-1.487 8.085-3.49 16.026-6.666 23.637-3.314 7.944-7.597 15.249-14.046 21.1-4.432 4.021-9.506 6.881-15.362 8.25a3.776 3.776 0 0 1-1.678.007c-8.775-2.115-15.514-7.25-20.929-14.284-6.005-7.811-9.657-16.75-12.305-26.148-2.212-7.852-3.647-15.855-4.465-23.97-.2-1.982-.308-3.979-.452-5.86Zm3.447 1.037c-.006.136-.035.301-.019.46.26 2.623.482 5.253.801 7.869 1.016 8.366 2.76 16.579 5.45 24.574 2.518 7.475 5.775 14.572 10.73 20.782 4.467 5.601 9.917 9.84 16.878 11.901.78.23 1.695.444 2.445.255a29.617 29.617 0 0 0 4.762-1.682c6.565-2.942 11.46-7.803 15.422-13.689 4.962-7.372 8.035-15.568 10.344-24.086 1.842-6.793 3.033-13.71 3.832-20.696.216-1.901.335-3.813.503-5.755-.587 0-1.02-.04-1.448.005-5.68.615-11.347.498-16.981-.452-6.076-1.027-11.772-3.001-16.594-7.012-.466-.388-.745-.317-1.207.016-1.422 1.026-2.832 2.094-4.362 2.939-6.311 3.488-13.218 4.628-20.303 4.823-3.37.095-6.752-.154-10.253-.252ZM88.13 73.126c.864.021 1.544.614 1.562 1.533.074 3.656 2.851 6.503 6.588 6.6.963.025 1.567.742 1.546 1.652-.022.864-.615 1.544-1.536 1.563-3.647.073-6.506 2.85-6.598 6.59-.024.964-.744 1.568-1.654 1.546-.864-.021-1.54-.614-1.56-1.535-.08-3.646-2.823-6.5-6.586-6.6-.964-.025-1.568-.746-1.544-1.656.022-.867.612-1.538 1.533-1.563 3.714-.092 6.498-2.884 6.598-6.59.024-.958.742-1.562 1.651-1.54Zm2.147 9.769c-.69-.707-1.527-1.563-2.212-2.261l-2.26 2.226c.739.742 1.58 1.592 2.26 2.275.715-.723 1.54-1.557 2.212-2.24ZM23.049 8.05c.219-2.628.511-3.172 1.676-3.175 1.185-.003 1.491.563 1.686 3.247.48 0 .972-.01 1.462.003 1.048.03 1.709.645 1.725 1.587.016.989-.655 1.623-1.765 1.652-.439.011-.877.003-1.484.003 0 .553.019 1.078-.003 1.6-.043 1.02-.714 1.675-1.662 1.648-.902-.025-1.527-.667-1.568-1.642-.021-.498-.002-1.002-.002-1.557-1.327-.187-3.092.444-3.233-1.693-.073-1.14.49-1.408 3.168-1.674Zm-12.93 47.236c-1.36-.165-3.236.43-3.2-1.71.032-2.063 1.868-1.437 3.159-1.616.179-1.281-.455-3.047 1.681-3.188 1.143-.076 1.414.493 1.673 3.166 1.24.23 3.084-.441 3.157 1.782.036 1.119-.574 1.39-3.23 1.588 0 .511.02 1.037-.005 1.565-.043.967-.682 1.609-1.587 1.623-.95.016-1.605-.64-1.646-1.666-.019-.477-.002-.95-.002-1.544Z"/><path d="M25.924 26.654c6.292-.03 12.484-.791 18.375-3.102 2.345-.92 4.568-2.166 6.788-3.372.92-.498 1.646-.55 2.526.017 6.06 3.897 12.814 5.639 19.902 6.207 2.892.233 5.808.187 8.715.239 1.462.027 2.14.658 1.996 2.131-.656 6.807-1.93 13.502-3.688 20.105-2.074 7.803-4.854 15.325-9.248 22.158-3.75 5.829-8.483 10.542-14.853 13.556-2.835 1.344-5.34 1.33-8.163-.008-5.967-2.828-10.532-7.15-14.184-12.54-4.66-6.88-7.551-14.531-9.733-22.486-1.809-6.59-3.04-13.293-3.84-20.078-.027-.236-.032-.471-.043-.71-.07-1.53.544-2.142 2.104-2.126 1.113.02 2.228.009 3.346.009Zm54.955 3.369c-.728 0-1.297.01-1.862-.003-9.195-.209-18.089-1.641-26.173-6.405-.25-.147-.734-.147-.983 0-7.053 4.13-14.766 5.823-22.829 6.248-1.681.09-3.365.152-5.076.227-.008.168-.033.298-.016.426.926 7.18 2.32 14.26 4.445 21.185 2.082 6.78 4.735 13.302 8.85 19.139 3.626 5.14 8.101 9.252 14.142 11.383.579.203 1.348.203 1.93.008 3.143-1.061 5.924-2.776 8.42-4.956 4.676-4.087 7.911-9.209 10.5-14.775 3.451-7.421 5.604-15.254 7.128-23.268.571-3.01 1.004-6.046 1.524-9.21Z"/><path d="M45.854 45.506c0-2.162-.006-4.158.002-6.154.006-1.42.545-1.97 1.95-1.972a2139.7 2139.7 0 0 1 9.135 0c1.334.003 1.892.572 1.898 1.923.008 2.026.002 4.05.002 6.2h5.921c1.741 0 2.201.468 2.201 2.232 0 2.944.006 5.89-.002 8.835-.003 1.349-.563 1.917-1.898 1.923-2.025.008-4.053.002-6.222.002v5.39c0 .371.016.745-.005 1.116-.052.972-.631 1.6-1.595 1.606-3.249.025-6.495.025-9.744.003-1.053-.008-1.63-.653-1.638-1.766-.013-2.064-.005-4.125-.005-6.349h-1.408c-1.657 0-3.317.014-4.974-.005-1.104-.014-1.727-.599-1.735-1.671-.02-3.215-.02-6.43 0-9.648.005-1.072.63-1.655 1.74-1.663 2.094-.016 4.181-.002 6.377-.002ZM55.6 63.333c0-2.032-.002-3.987 0-5.943.003-1.627.496-2.131 2.093-2.134 1.985-.003 3.967 0 5.96 0v-6.508h-5.638c-2.025 0-2.415-.39-2.415-2.424V40.7h-6.506c0 2.107.009 4.136-.002 6.164-.006 1.287-.577 1.864-1.839 1.88-.744.01-1.489.003-2.233.003h-3.996v6.508c2.038 0 4.026-.003 6.01 0 1.543.003 2.055.517 2.058 2.07.002 1.985 0 3.973 0 6.007H55.6Z"/></g><defs><clipPath id="a"><path fill="#fff" d="M.332 0h104v104h-104z"/></clipPath></defs></svg>