<svg xmlns="http://www.w3.org/2000/svg" width="105" height="104" fill="none"><g fill="#2F89F0" clip-path="url(#a)"><path d="M104.667 63.66v5.473c-.822 2.087-2.357 3.109-4.622 2.998-.24.97-.463 1.87-.684 2.77 2.673 1.127 4.3 2.98 4.3 5.925 0 3.044-1.692 4.917-4.392 5.977v4.008c4.273.32 4.273.32 5.401 1.841v5.88c-.054.086-.127.164-.157.259-1.1 3.441-3.225 5.009-6.81 5.009h-78.64c-2.702 0-4.575-1.384-5.278-3.966-.22-.808-.306-1.654-.42-2.49a19086.1 19086.1 0 0 1-2.34-17.137c-.773-5.679-1.54-11.358-2.314-17.04-.781-5.746-1.568-11.49-2.351-17.237L4.692 33.74C1.956 33.16.883 31.824.88 29.06c0-.743.057-1.492-.01-2.227-.268-2.954 1.94-4.755 4.744-4.73 8.985.08 17.97.03 26.954.03h1.314v-1.187c0-3.885-.014-7.769.006-11.653.013-2.7 1.297-4.363 3.897-5.071 1.982-.54 3.974-1.04 5.96-1.57 3.282-.876 6.56-1.763 9.842-2.644h2.028c.08.06.151.138.243.17 2.479.9 3.7 2.576 3.627 4.985-.067 2.246-1.505 3.96-3.965 4.63-2.89.787-5.798 1.519-8.693 2.29-.997.264-2.37.286-2.87.948-.511.679-.184 2.003-.19 3.046-.013 1.982-.003 3.966-.003 6.055h1.309c8.276 0 16.553-.002 24.827.003 2.884.003 4.539 1.654 4.55 4.509.002.743 0 1.486 0 2.23 0 2.892-.99 4.168-3.85 4.906l-.83 6.07c1.833.1 3.585.16 5.326.3 5.57.452 10.895 1.842 15.842 4.477 5.89 3.141 10.437 7.539 12.561 14.042.519 1.617.784 3.323 1.168 4.99ZM7.787 33.663c1.362 10.006 2.71 19.889 4.06 29.803.197-.035.332-.043.457-.083 8.909-2.987 17.818-5.974 26.72-8.983a1.87 1.87 0 0 0 .907-.71c2.46-3.812 5.815-6.634 9.745-8.804 4.695-2.595 9.774-3.98 15.072-4.652 1.846-.236 1.863-.284 2.144-2.125.219-1.446.373-2.903.567-4.447H43.39c-.338 0-.679.022-1.011-.021-.82-.11-1.284-.638-1.322-1.425-.04-.848.443-1.394 1.279-1.57.291-.062.605-.024.91-.024h18.749c2.668 0 5.336-.017 8.006.008.944.008 1.376-.403 1.368-1.33-.005-.676 0-1.352 0-2.027 0-1.96-.087-2.05-2.06-2.05H5.973c-.303 0-.608-.002-.91.009-.79.027-1.158.446-1.152 1.227.008.81 0 1.622 0 2.433.002 1.524.208 1.727 1.77 1.727h28.88c.302 0 .61-.019.91.01.833.085 1.498.782 1.42 1.558-.087.821-.525 1.38-1.409 1.457-.335.03-.675.016-1.013.016H9.033c-.397.002-.792.002-1.246.002Zm62.692 35.334h29.174c.302 0 .608-.006.911-.003.708.008 1.092-.34 1.059-1.046-.081-1.749-.046-3.522-.316-5.244-.973-6.241-4.5-10.796-9.712-14.131-5.412-3.46-11.429-5.006-17.78-5.455-6.872-.487-13.538.386-19.887 3.114-8.01 3.44-14.864 9.91-14.424 21.157.06 1.54.073 1.605 1.598 1.605 9.79.003 19.584.003 29.377.003ZM39.567 93.979c0 1.428-.07 2.709.021 3.977.079 1.08.733 1.919 1.709 2.346a5.523 5.523 0 0 0 2.146.441c18.075.024 36.148.018 54.223.018.235 0 .473.006.708-.016 1.609-.151 2.892-1.138 3.111-2.708.182-1.309.038-2.663.038-4.058h-1.351c-7.636 0-15.27.003-22.906-.005-.435 0-.884-.01-1.306-.105-.708-.16-1.078-.652-1.108-1.382-.03-.724.287-1.256.981-1.475.376-.12.795-.146 1.192-.146 5.947-.009 11.891-.006 17.838-.006h1.24v-3.822h-51.03v3.822h23.281c.338 0 .684-.027 1.011.035.827.16 1.357.681 1.352 1.528-.008.835-.495 1.386-1.36 1.502-.4.055-.808.052-1.214.052-9.055.002-18.108.002-27.163.002h-1.413Zm1.513-21.797c-.443-.043-.849-.062-1.246-.127-1.962-.327-3.362-1.722-3.406-3.692a44.647 44.647 0 0 1 .281-5.855c.157-1.44.584-2.852.909-4.368l-25.336 8.495 3.181 23.363 22.084-7.66c-.524-3.577.77-5.823 4.196-7.447-.214-.87-.428-1.744-.663-2.709Zm13.635 6.255c-.103.032-.174.038-.23.073-3.606 2.208-7.104 2.22-10.526-.433-.303-.235-.916-.278-1.308-.156-1.098.34-1.838 1.1-2.084 2.265-.444 2.116 1.062 3.746 3.473 3.746 17.665.003 35.329 0 52.994 0 .235 0 .475.011.708-.01 1.473-.147 2.684-1.293 2.862-2.709.179-1.395-.662-2.836-2.04-3.238-.47-.138-1.19-.076-1.56.205-3.033 2.303-6.652 2.579-9.928.59-.541-.33-.85-.26-1.317.078-1.762 1.276-3.738 1.984-5.898 1.432-1.435-.365-2.784-1.062-4.292-1.66-3.312 2.515-6.812 2.485-10.296-.186-3.547 2.72-7.074 2.698-10.558.003ZM15.877 93.109c.265 1.868.492 3.638.773 5.398.265 1.668.979 2.252 2.67 2.254 5.674.003 11.348 0 17.024 0h1.03c-1.365-2.324-.957-4.76-.962-7.13-.003-1.692 1.127-2.717 2.85-2.765.832-.025 1.667-.003 2.602-.003 0-.916-.051-1.725.014-2.52.084-1.024-.04-1.84-1.238-2.124-.338-.081-.681-.338-.92-.608-.467-.533-.945-.47-1.535-.252-1.705.628-3.43 1.209-5.146 1.803-5.693 1.974-11.386 3.944-17.162 5.947ZM96.712 72.19h-52.41c.349 2.346 1.555 3.944 3.428 4.541 1.792.573 3.56.368 4.987-.805 1.665-1.368 2.754-1.214 4.117.154.578.581 1.481.949 2.303 1.151 1.719.427 3.146-.275 4.411-1.438 1.327-1.216 2.176-1.203 3.422-.046 2.33 2.163 4.782 2.155 7.188-.021 1.219-1.103 2.06-1.117 3.276-.052 2.608 2.282 4.784 2.282 7.336 0 1.097-.978 1.865-.984 3.068-.143.654.457 1.351.92 2.1 1.17 3.355 1.13 6.817-1.186 6.774-4.51ZM40.64 22.08v-1.145c0-2.868-.003-5.736 0-8.604.002-1.52.289-1.908 1.719-2.287 1.692-.446 3.387-.878 5.079-1.322 2.538-.664 5.079-1.319 7.609-2.01.924-.252 1.39-.925 1.37-1.882a1.795 1.795 0 0 0-1.565-1.727c-.416-.052-.87.046-1.286.154-4.95 1.278-9.899 2.568-14.843 3.86-1.39.362-1.781.9-1.781 2.392-.003 3.879-.003 7.76 0 11.64 0 .294.03.589.046.927 1.2.005 2.338.005 3.652.005Z"/><path d="M91.226 55.652c.033.821-.668 1.54-1.51 1.554-.855.013-1.56-.646-1.59-1.481-.027-.811.686-1.557 1.505-1.576.806-.02 1.563.694 1.595 1.503ZM56.2 64.471c-.865-.005-1.557-.702-1.535-1.546.021-.838.756-1.519 1.605-1.486.795.03 1.476.719 1.484 1.508.011.849-.686 1.532-1.554 1.524Zm23.998-10.32c.821.054 1.486.814 1.438 1.638-.052.865-.741 1.466-1.625 1.414-.83-.048-1.514-.805-1.457-1.61.06-.82.83-1.496 1.644-1.442ZM46.622 64.472c-.852-.014-1.55-.727-1.52-1.56.03-.833.77-1.508 1.614-1.473a1.526 1.526 0 0 1 1.449 1.522c.003.873-.66 1.524-1.543 1.51Zm17.636-1.491a1.512 1.512 0 0 1 1.525-1.544c.838.006 1.556.733 1.54 1.555-.016.797-.684 1.457-1.497 1.478-.879.025-1.554-.616-1.568-1.489Zm3.053-14.565c.003.808-.724 1.532-1.546 1.543a1.544 1.544 0 0 1-1.546-1.522c.003-.813.73-1.556 1.535-1.562.797-.008 1.554.74 1.557 1.54Zm-14.364 7.212c.024.795-.63 1.498-1.43 1.54-.884.05-1.581-.567-1.624-1.432-.044-.878.592-1.578 1.457-1.603.848-.021 1.573.654 1.597 1.495Zm8.034 1.562c-.87 0-1.53-.665-1.516-1.535a1.515 1.515 0 0 1 1.562-1.506 1.527 1.527 0 0 1 1.468 1.503c.016.868-.64 1.538-1.514 1.538Zm9.599 0c-.865.018-1.565-.644-1.576-1.493a1.55 1.55 0 0 1 1.535-1.549c.806 0 1.47.646 1.503 1.463.033.892-.584 1.56-1.462 1.578Zm4.73 4.248c.843-.011 1.56.686 1.562 1.521.003.838-.7 1.522-1.56 1.511-.84-.01-1.459-.618-1.483-1.46-.024-.875.622-1.564 1.481-1.572Zm20.652 1.548c-.008.876-.676 1.511-1.557 1.487a1.513 1.513 0 0 1-1.479-1.487 1.528 1.528 0 0 1 1.525-1.548c.857-.003 1.519.678 1.51 1.548ZM76.865 48.43c-.006.81-.73 1.524-1.555 1.53-.856.005-1.513-.668-1.505-1.539.008-.835.713-1.551 1.524-1.546.803 0 1.541.749 1.536 1.554Zm8.049 13.008c.851.01 1.52.71 1.5 1.567-.022.863-.708 1.498-1.587 1.465-.827-.032-1.438-.667-1.44-1.502-.003-.87.667-1.541 1.527-1.53Z"/></g><defs><clipPath id="a"><path fill="#fff" d="M.668 0h104v104h-104z"/></clipPath></defs></svg>