<svg xmlns="http://www.w3.org/2000/svg" width="88" height="104" fill="none"><path fill="#2F89F0" d="M1.427 104.001c-.203-.26-.444-.498-.6-.783-.59-1.069.126-2.24 1.404-2.253 2.227-.024 4.456-.008 6.683-.008h1.224c0-.797-.006-1.498 0-2.197.046-5.655 3.916-9.48 9.632-9.52.641-.006 1.283 0 1.884 0 .167-1.108.225-2.127.485-3.09 1.089-4.018 4.624-6.634 8.993-6.672 3.393-.03 6.788-.005 10.18-.005h1.202c0-2.078.12-4.104-.022-6.108-.392-5.496-.738-11.002-1.401-16.47-.7-5.754-2.247-11.323-4.685-16.463-1.983.804-3.87 1.817-5.888 2.34-6.92 1.798-12.685-.347-17.4-5.463-4.3-4.67-6.768-10.266-8.186-16.357-.107-.46-.197-.924-.296-1.387-.241-1.127.126-1.866 1.034-2.085 1.064-.258 1.667.219 2.024 1.443.765 2.622 1.399 5.3 2.41 7.83 1.682 4.199 4.126 7.958 7.812 10.756 4.928 3.743 11.927 3.7 16.919-.108-.19-.352-.382-.732-.598-1.095-3.28-5.536-7.562-10.278-12.07-14.84l-.576-.582c-1.07-1.091-1.199-1.855-.442-2.608.773-.767 1.602-.623 2.701.504a403.49 403.49 0 0 1 3.83 3.97c.252.266.44.59.66.891l.28-.162c.129-1.065.269-2.129.384-3.196.142-1.311.779-1.937 1.851-1.79 1.01.138 1.41.828 1.248 2.142-.214 1.744-.411 3.491-.639 5.235-.093.71.093 1.257.543 1.853 1.835 2.44 3.587 4.94 5.513 7.62.836-1.258 1.711-2.55 2.545-3.863.101-.157.038-.469-.039-.677-1.042-2.76-.526-5.396.7-7.947.304-.634.34-1.162.107-1.812-1.681-4.678-4.956-8.042-9.07-10.688-4.885-3.142-10.299-5.003-15.981-6.094-2.841-.545-5.727-.864-8.785-1.314-.09 2.118-.175 3.965-.241 5.813-.025.642.027 1.286-.008 1.928-.05.87-.68 1.447-1.53 1.463-.85.013-1.558-.558-1.528-1.43.112-3.137.26-6.279.463-9.415C4.211.402 4.913-.026 6.03 0c4.95.125 9.802.9 14.569 2.221 5.444 1.512 10.58 3.668 15.092 7.11 3.196 2.44 5.76 5.39 7.43 9.052.052.111.115.22.203.39.565-.542 1.078-1.026 1.585-1.517 2.277-2.199 4.88-3.924 7.77-5.233 1.237-.56 1.884-.392 2.61.726 2.875 4.44 4.493 9.22 4.15 14.57-.307 4.81-3.088 8.388-7.544 9.314-1.38.287-2.839.19-4.397.28-2.413 9.216-4.144 18.61-2.142 28.317.088-.143.217-.303.296-.485a33.53 33.53 0 0 1 6.94-10.338c.383-.393.578-.696.331-1.311-2.359-5.872-.228-11.78 5.376-14.962 4.163-2.362 8.705-3.102 13.441-3.028 3.48.054 6.881.582 10.224 1.498 1.454.398 1.857 1.026 1.5 2.475-1.41 5.723-3.71 11.032-7.717 15.485-2.403 2.668-5.17 4.875-8.776 5.728-4.545 1.076-8.453-.119-11.67-3.483-.093-.097-.167-.214-.332-.428-6.234 6.5-8.848 14.266-9.193 23.085.672 0 1.21-.005 1.747 0 3.595.044 7.21-.114 10.784.182 4.448.368 7.786 4.192 7.907 8.586.008.298.027.593.05 1.013 3.383-.187 6.54.22 9.028 2.754 2.457 2.503 2.737 5.62 2.572 8.949 2.52 0 4.912.006 7.301-.002.837-.003 1.657-.063 2.084.896.414.929-.159 1.52-.66 2.151H63.55c-.667-.566-1.064-1.249-.735-2.126.362-.962 1.215-.932 2.062-.921 1.61.019 3.22.005 4.83.005H74.7c0-.951.011-1.787-.003-2.627-.06-3.472-2.52-5.902-6.039-5.956-1.198-.02-2.397.01-3.598-.008-1.393-.022-1.923-.55-1.942-1.907-.008-.642.017-1.287-.008-1.929-.12-3.301-2.504-5.872-5.707-5.894-8.941-.06-17.882-.051-26.823 0-2.79.017-5.09 2.086-5.526 4.816-.16.994-.13 2.018-.16 3.031-.04 1.303-.553 1.853-1.867 1.88-1.3.027-2.603-.014-3.906.019-2.81.068-5.202 1.947-5.68 4.664-.216 1.235-.035 2.538-.035 3.911h40.896c.342 0 .77-.119 1.009.038.466.306.99.704 1.196 1.186.315.745-.242 1.322-.774 1.82C37.629 104 19.528 104 1.427 104Zm55.667-49.734c2.558 2.505 5.298 3.903 8.792 3.459 1.923-.244 3.248-1.558 4.666-2.622 4.327-3.24 6.84-7.736 8.639-12.682.362-.996.65-2.017.99-3.09-5.19-1.238-10.23-1.704-15.299-.48-3.058.74-5.929 1.91-8.03 4.388-2.018 2.381-2.493 5.837-1.13 8.253.354-.276.697-.547 1.045-.815 3.752-2.88 7.893-5.1 12.227-6.985.885-.385 1.695-.081 2.07.701.412.856.083 1.663-.905 2.143-1.456.707-2.92 1.395-4.563 2.175.469.233.732.363.995.495 1.012.51 1.32 1.173.944 2.04-.393.904-1.185 1.192-2.216.766-.85-.349-1.673-.774-2.54-1.086-.296-.108-.768-.097-1.015.068-1.525 1.018-3.008 2.096-4.67 3.272Zm-3.917-39.03c-3.274 1.739-6.11 3.767-8.252 6.63-1.174 1.569-2.05 3.275-2.277 5.25-.252 2.172 1.097 4.669 2.916 5.34.112-.316.214-.636.334-.947.724-1.858 1.399-3.735 2.197-5.564.524-1.2 2.074-1.324 2.68-.21.241.446.18 1.183.002 1.7-.718 2.064-1.538 4.095-2.328 6.157 3.436.807 6.65-1.143 7.493-4.486 1.258-5.005-.44-9.444-2.765-13.87Zm-11.05 31.07 2.359-10.661c-.73-.501-1.476-1.016-2.14-1.474-1.094 1.273-2.163 2.498-3.2 3.749-.134.16-.2.498-.123.685 1.025 2.595 2.078 5.173 3.104 7.7Z"/></svg>